<svg width="64" height="64" viewBox="0 0 64 64" fill="none" xmlns="http://www.w3.org/2000/svg">
<path d="M31.9973 0C25.9973 0 19.9973 0.16 14.3973 0.56C10.8431 0.790916 7.49012 2.29132 4.94966 4.78773C2.40919 7.28415 0.850366 10.6103 0.557317 14.16C-0.0826828 22.72 -0.162683 31.2 0.397317 39.76C0.703985 43.5642 2.44442 47.1098 5.2664 49.6793C8.08838 52.2488 11.7811 53.6502 15.5973 53.6H23.9973V43.2H15.5973C13.1173 43.28 10.9573 41.52 10.7173 39.04C10.2373 31.04 10.3173 23.04 10.8773 15.04C11.0373 12.8 12.7973 11.12 15.0373 10.96C20.4773 10.56 26.2373 10.4 31.9973 10.4C37.7573 10.4 43.5173 10.64 48.9573 10.88C51.1173 11.04 52.9573 12.72 53.1173 14.96C53.7573 22.96 53.7573 30.96 53.2773 38.96C52.9573 41.44 50.8773 43.28 48.3973 43.2H39.9973L23.9973 53.6V64L39.9973 53.6H48.3973C56.3173 53.68 62.9573 47.6 63.5973 39.76C64.1573 31.28 64.0773 22.72 63.5173 14.24C63.2243 10.6903 61.6654 7.36415 59.125 4.86774C56.5845 2.37132 53.2316 0.870916 49.6773 0.64C43.9973 0.16 37.9973 0 31.9973 0V0ZM18.5573 23.36C17.5973 23.36 16.7973 24.16 16.7973 25.12V31.36C16.7973 32.24 17.2773 33.04 18.0773 33.44C22.3973 35.52 27.1973 36.64 31.9973 36.8C36.7973 36.64 41.5973 35.52 45.9173 33.44C46.7173 33.04 47.1973 32.24 47.1973 31.36V25.12C47.1973 24.88 47.1173 24.72 46.9573 24.56C46.8734 24.3405 46.7455 24.1404 46.5816 23.972C46.4177 23.8036 46.2212 23.6704 46.004 23.5805C45.7868 23.4906 45.5536 23.446 45.3187 23.4494C45.0837 23.4527 44.8518 23.504 44.6373 23.6C40.6373 25.36 36.3173 26.32 31.9173 26.4C27.5173 26.32 23.1973 25.28 19.1973 23.52C18.9984 23.4201 18.7798 23.3655 18.5573 23.36Z" fill="#D33439"/>
</svg>
