<svg width="13" height="24" viewBox="0 0 13 24" fill="none" xmlns="http://www.w3.org/2000/svg">
<path d="M1.95599 0.668003L12.32 11.3C12.502 11.4868 12.6039 11.7372 12.6039 11.998C12.6039 12.2588 12.502 12.5093 12.32 12.696L1.95599 23.332C1.8712 23.4191 1.76982 23.4883 1.65784 23.5356C1.54586 23.5828 1.42554 23.6072 1.304 23.6072C1.18245 23.6072 1.06213 23.5828 0.950149 23.5356C0.838166 23.4883 0.736788 23.4191 0.651996 23.332C0.477551 23.1534 0.379889 22.9137 0.379889 22.664C0.379889 22.4143 0.477551 22.1746 0.651996 21.996L10.398 11.998L0.651996 2.002C0.478149 1.8235 0.380866 1.58417 0.380866 1.335C0.380866 1.08583 0.478149 0.846507 0.651996 0.668003C0.736788 0.580916 0.838166 0.511698 0.950149 0.464435C1.06213 0.417172 1.18245 0.392822 1.304 0.392822C1.42554 0.392822 1.54586 0.417172 1.65784 0.464435C1.76982 0.511698 1.8712 0.580916 1.95599 0.668003Z" fill="#F5F0EC"/>
</svg>
